<svg xmlns="http://www.w3.org/2000/svg" viewBox="0 0 20 20"><defs><style>.cls-1{fill:#48c0ef;}</style></defs><title>资源 34</title><g id="图层_2" data-name="图层 2"><g id="图层_1-2" data-name="图层 1"><path class="cls-1" d="M20,19.26V13.58a.71.71,0,1,0-1.43,0v4l-5.92-5.88a.71.71,0,1,0-1,1l5.91,5.88h-4a.71.71,0,1,0,0,1.42h5.72a.68.68,0,0,0,.68-.68s0,0,0,0ZM12.65,8.33l5.89-5.9v4a.71.71,0,1,0,1.43,0V.71s0,0,0,0A.68.68,0,0,0,19.29,0H13.54a.7.7,0,0,0-.73.71.7.7,0,0,0,.73.71h4l-5.9,5.9a.71.71,0,1,0,1,1ZM2.44,1.43h4A.7.7,0,0,0,7.14.72.7.7,0,0,0,6.4,0H.68A.68.68,0,0,0,0,.69s0,0,0,0v5.7a.71.71,0,0,0,.71.73.7.7,0,0,0,.71-.73v-4L7.35,8.32a.71.71,0,1,0,1-1ZM7.32,11.67l-5.89,5.9v-4a.71.71,0,0,0-.71-.73.7.7,0,0,0-.71.73v5.68s0,0,0,0A.68.68,0,0,0,.68,20H6.43a.71.71,0,1,0,0-1.42h-4l5.9-5.9a.71.71,0,1,0-1-1Zm0,0"/></g></g></svg>